<svg width="128" height="128" viewBox="0 0 128 128" fill="none" xmlns="http://www.w3.org/2000/svg">
<path fill-rule="evenodd" clip-rule="evenodd" d="M0 65.0492C0 62.218 0 60.8024 0.0462455 59.6058C1.29687 27.2441 27.2441 1.29687 59.6058 0.0462455C60.8024 0 62.3914 0 65.5693 0C67.6965 0 68.7601 0 69.52 0.0192554C101.466 0.828785 127.171 26.5344 127.981 58.48C128 59.2399 128 60.1384 128 61.9355C128 63.8523 128 64.8108 127.979 65.6213C127.116 99.6967 99.6967 127.116 65.6213 127.979C64.8108 128 63.7595 128 61.6571 128C59.2578 128 58.0581 128 57.1166 127.97C26.0094 126.976 1.02356 101.991 0.0300674 70.8834C0 69.9419 0 68.8285 0 66.6016V65.0492ZM42.8083 49.7778C44.1133 37.7813 54.2762 28.4444 66.6199 28.4444H72.6082C87.4908 28.4444 99.5556 40.5092 99.5556 55.3918V58.2434C99.5556 72.4653 88.5962 84.1276 74.6619 85.2456C74.6651 85.0929 74.6667 84.9398 74.6667 84.7863V75.6364C74.6667 61.3551 63.0894 49.7778 48.8081 49.7778H42.8083Z" fill="#6565F2"/>
<path d="M28.4443 75.6824C28.4443 67.2667 35.2667 60.4443 43.6824 60.4443H47.8383C56.7641 60.4443 63.9999 67.6801 63.9999 76.606V82.3247C63.9999 89.8773 57.8773 95.9999 50.3247 95.9999H48.7618C37.5408 95.9999 28.4443 86.9035 28.4443 75.6824Z" fill="#F9E547"/>
</svg>
